<svg width="14" height="17" viewBox="0 0 14 17" fill="none" xmlns="http://www.w3.org/2000/svg">
<path d="M4.67052 2.70703L2.42966 5.37695L1.54971 7.57675C1.0652 8.78664 0.667969 9.78897 0.667969 9.80316C0.667969 9.83864 2.55435 14.2134 2.58107 14.2382C2.59176 14.2489 3.60887 14.6587 4.8433 15.1483L7.08416 16.0371L9.31433 15.0845L11.5427 14.13L12.4369 11.9036C12.9286 10.6795 13.3311 9.66301 13.3311 9.6435C13.3329 9.61511 11.5427 5.44259 11.4643 5.29357C11.443 5.24922 6.92563 0.0317898 6.91494 0.0371122C6.91316 0.0371122 5.90317 1.23813 4.67052 2.70703ZM8.73363 2.97314C9.7169 4.10319 10.6075 5.13036 10.7162 5.25454L10.9104 5.47984L10.474 7.11728C10.2335 8.01848 10.0286 8.77067 10.0215 8.79019C10.0073 8.82389 10.0055 8.82389 9.98766 8.78132C9.69909 8.08235 9.0703 6.71812 7.91959 4.29656C6.55156 1.41376 6.5284 1.36231 6.55868 1.32329C6.70653 1.13879 6.91316 0.904614 6.92919 0.909936C6.9381 0.913485 7.75036 1.8413 8.73363 2.97314ZM7.36204 4.41188C8.03003 5.82401 8.5751 6.98422 8.57332 6.99132C8.56976 6.99841 8.20815 6.86181 7.7664 6.68796L6.96482 6.37218L5.07843 5.87368C4.03994 5.5987 3.18671 5.37163 3.18315 5.36631C3.1778 5.36276 3.18493 5.34502 3.19918 5.32728C3.3684 5.11617 6.12405 1.84485 6.13296 1.84485C6.14008 1.84485 6.69228 2.99975 7.36204 4.41188ZM4.48527 6.29058C5.36344 6.52297 6.08308 6.71812 6.08308 6.72521C6.08308 6.73054 5.76067 6.87246 5.367 7.04277C4.97156 7.2113 4.62064 7.36564 4.5868 7.38693C4.36058 7.52353 1.53011 9.14854 1.52655 9.14499C1.5212 9.13967 2.69151 6.2072 2.81264 5.91803C2.82867 5.879 2.85004 5.85416 2.86251 5.85771C2.87498 5.86303 3.60531 6.0564 4.48527 6.29058ZM11.9845 7.88543C12.3621 8.76358 12.6738 9.4927 12.6774 9.50512C12.6827 9.52818 9.78459 11.2153 9.77569 11.1958C9.77212 11.1905 9.9075 10.8427 10.0732 10.4258C10.2406 10.0072 10.376 9.65592 10.376 9.64527C10.3742 9.59737 11.2755 6.26397 11.2862 6.27638C11.2916 6.28348 11.6068 7.00729 11.9845 7.88543ZM8.47535 7.55901L8.93492 7.74351L9.3553 8.7139L9.7739 9.6843L9.38024 10.6671L8.9848 11.6499L8.01043 12.0651L7.03607 12.4819L6.05102 12.0899L5.06597 11.6996L4.64736 10.7274L4.22698 9.75704L4.62064 8.776L5.01609 7.79318L5.98867 7.37628L6.96125 6.95939L7.48851 7.16872C7.77886 7.28226 8.2224 7.45789 8.47535 7.55901ZM3.93841 8.98888L3.64272 9.73042V11.9001C3.64272 13.0922 3.63915 14.0679 3.63381 14.0679C3.62847 14.0679 3.48062 14.0129 3.30784 13.9438L2.99255 13.8196L2.16069 11.8912C1.7029 10.8286 1.32704 9.9504 1.32348 9.93799C1.31992 9.92202 1.85074 9.60624 2.76989 9.07581C3.5679 8.61456 4.2252 8.23846 4.22698 8.24201C4.23054 8.24379 4.10051 8.58085 3.93841 8.98888ZM11.7974 12.0065L11.1152 13.7114L9.10236 14.5735C7.99618 15.0472 7.08238 15.4339 7.07526 15.4339C7.06813 15.4339 6.41618 15.1785 5.62885 14.8645L4.19492 14.2968V12.7179C4.19492 11.8504 4.20026 11.1408 4.20917 11.1408C4.21629 11.1408 4.31782 11.3625 4.43361 11.634L4.6438 12.1254L5.84439 12.6026L7.04319 13.0798L8.13512 12.6132C8.73542 12.3578 9.27158 12.1254 9.32502 12.0988C9.37846 12.0739 10.1088 11.6552 10.946 11.1709C11.7832 10.6866 12.4708 10.2946 12.4743 10.2963C12.4779 10.2999 12.1733 11.0698 11.7974 12.0065Z" fill="white"/>
</svg>
