<svg width="635" height="409" viewBox="0 0 635 409" fill="none" xmlns="http://www.w3.org/2000/svg">
<g filter="url(#filter0_i)">
<g clip-path="url(#clip0)">
<rect width="635" height="409" rx="64" transform="matrix(-1 0 0 1 635 0)" fill="url(#paint0_linear)"/>
<g filter="url(#filter1_d)">
<path d="M434.44 174.49C398.921 174.49 370.127 148.281 370.127 115.95C370.127 83.6192 398.921 57.41 434.44 57.41C469.958 57.41 498.752 83.6192 498.752 115.95C498.752 148.281 469.958 174.49 434.44 174.49Z" fill="#233F45"/>
<path d="M328.494 307.245C328.494 307.245 306.83 292.348 306.83 285.576C306.83 278.805 291.937 234.79 283.813 254.427C275.69 274.065 295.322 301.828 295.322 301.828C295.322 301.828 316.985 341.103 329.847 347.874C342.71 354.646 353.542 350.583 353.542 350.583V332.3L341.165 313.978C339.765 311.905 337.877 310.207 335.668 309.033C333.459 307.859 330.995 307.245 328.494 307.245Z" fill="#FFB9B9"/>
<path d="M390.068 203.53C390.068 203.53 357.603 213.798 354.218 218.538C350.834 223.278 349.48 215.153 340.002 246.302C330.524 277.451 328.155 307.584 328.155 307.584C328.155 307.584 351.511 315.371 348.803 345.843C346.095 376.315 352.864 409.495 352.864 409.495H361.316L379.943 351.937L357.603 264.585C357.603 264.585 389.362 210.868 390.068 203.53Z" fill="#31545B"/>
<path d="M400.93 175.201C378.497 175.201 360.312 157.01 360.312 134.572C360.312 112.133 378.497 93.9424 400.93 93.9424C423.363 93.9424 441.548 112.133 441.548 134.572C441.548 157.01 423.363 175.201 400.93 175.201Z" fill="#FFB9B9"/>
<path d="M385.359 165.043C385.359 165.043 396.868 202.964 386.713 208.381C376.559 213.798 365.05 238.176 365.05 238.176L382.651 257.813H423.27L441.548 237.499L448.995 202.964L438.84 194.838C438.84 194.838 428.008 167.752 428.008 153.532C428.008 139.312 385.359 165.043 385.359 165.043Z" fill="#FFB9B9"/>
<path d="M381.974 207.027C381.974 207.027 390.098 204.995 385.359 213.121C380.62 221.247 375.881 236.144 392.806 236.822C409.73 237.499 426.654 228.696 432.07 210.413C437.486 192.13 439.517 193.484 441.548 194.161C443.579 194.838 465.242 217.184 465.242 217.184L457.795 259.168L455.087 409.495H356.249C356.249 409.495 352.187 366.158 358.957 356C365.727 345.843 352.864 320.111 352.864 320.111C352.864 320.111 341.356 302.505 350.156 268.648C358.957 234.79 378.589 207.027 381.974 207.027Z" fill="#0093B3"/>
<path d="M436.809 194.161C436.809 194.161 446.964 189.421 455.764 197.547C464.565 205.673 484.197 212.444 484.197 216.507C484.197 220.57 467.273 336.363 478.782 356.678C490.29 376.992 502.476 409.495 502.476 409.495H446.007C446.007 409.495 436.809 375.638 427.332 357.355C417.854 339.072 418.531 287.608 421.239 272.033C423.947 256.459 436.809 194.161 436.809 194.161Z" fill="#31545B"/>
<path d="M496.383 373.606L493.086 409.495H456.498L459.826 364.803L496.383 373.606Z" fill="#FFB9B9"/>
<path d="M329.848 354.646L321.047 409.495H125.402L108.478 299.12L329.848 354.646Z" fill="#1E363C"/>
<path d="M103.063 292.175C101.956 291.9 100.844 292.606 100.62 293.724L99.3771 299.942C99.1664 300.995 99.8257 302.027 100.87 302.278L349.719 362.178C350.977 362.481 352.188 361.527 352.188 360.233V355.533C352.188 354.614 351.561 353.813 350.669 353.592L103.063 292.175Z" fill="#233F45"/>
<path d="M206.237 309.676C207.024 309.891 207.602 310.562 207.697 311.372L208.592 318.979C208.745 320.277 207.631 321.371 206.335 321.194L196.837 319.898C195.46 319.711 194.689 318.21 195.339 316.981L199.344 309.415C199.782 308.588 200.735 308.175 201.638 308.421L206.237 309.676Z" fill="#233F45"/>
<path d="M289.906 193.484C289.906 193.484 260.119 191.452 251.996 214.476C243.872 237.499 224.917 278.805 217.47 284.899C210.023 290.994 201.9 307.245 203.254 312.663" stroke="#233F45" stroke-width="5" stroke-miterlimit="10"/>
<path d="M285.506 193.145C285.506 196.324 288.885 198.901 294.307 198.901C299.728 198.901 302.43 196.324 302.43 193.145C302.43 189.966 299.728 187.389 294.307 187.389C288.885 187.389 285.506 189.966 285.506 193.145Z" fill="#0093B3"/>
<path d="M335.602 298.781C335.602 298.781 330.524 277.451 340.002 246.302C349.48 215.153 350.834 223.279 354.218 218.539C357.603 213.798 390.068 203.53 390.068 203.53C389.836 205.941 386.251 213.36 381.542 222.236C382.39 219.036 383.674 215.97 385.359 213.121C390.098 204.995 381.974 207.027 381.974 207.027C378.589 207.027 358.957 234.79 350.157 268.648C341.356 302.505 352.864 320.111 352.864 320.111L335.602 298.781Z" fill="#31545B"/>
<path d="M389.76 203.302C389.76 203.302 385.752 218.51 382.34 220.725C378.928 222.94 358.694 243.968 358.694 243.968L361.327 227.003L372.158 210.751L375.039 208.66L389.76 203.302Z" fill="#31545B"/>
<path opacity="0.1" d="M479.797 250.026L478.853 215.153C478.853 215.153 501.121 224.633 503.152 265.262C505.183 305.891 499.767 382.409 492.321 383.086C484.874 383.764 449.671 375.638 449.671 375.638C449.671 375.638 444.256 277.451 446.287 264.585C448.317 251.719 479.797 250.026 479.797 250.026Z" fill="black"/>
<path d="M478.104 215.153H483.592C483.592 215.153 505.86 224.633 507.891 265.262C509.922 305.891 504.506 382.409 497.059 383.086C489.613 383.764 454.41 375.638 454.41 375.638C454.41 375.638 448.994 277.451 451.025 264.585C453.056 251.719 478.104 215.153 478.104 215.153Z" fill="#31545B"/>
<path d="M449.333 170.799C426.152 170.799 407.361 149.729 407.361 123.737C407.361 97.7455 426.152 76.675 449.333 76.675C472.514 76.675 491.305 97.7455 491.305 123.737C491.305 149.729 472.514 170.799 449.333 170.799Z" fill="#233F45"/>
<path d="M419.208 161.996C414.534 161.996 410.746 156.387 410.746 149.469C410.746 142.55 414.534 136.942 419.208 136.942C423.881 136.942 427.67 142.55 427.67 149.469C427.67 156.387 423.881 161.996 419.208 161.996Z" fill="#FFB9B9"/>
<path d="M491.305 111.21C472.238 111.21 456.78 95.7481 456.78 76.675C456.78 57.602 472.238 42.1403 491.305 42.1403C510.373 42.1403 525.831 57.602 525.831 76.675C525.831 95.7481 510.373 111.21 491.305 111.21Z" fill="#233F45"/>
<path d="M486.843 104.341C491.859 106.894 497.423 108.182 503.049 108.092C508.676 108.002 514.196 106.538 519.128 103.827C524.059 101.115 528.254 97.239 531.346 92.5355C534.437 87.832 536.333 82.4438 536.866 76.8401C537.604 81.6772 537.305 86.6159 535.99 91.3288C534.674 96.0416 532.373 100.421 529.237 104.177C526.102 107.933 522.205 110.979 517.803 113.114C513.402 115.25 508.597 116.425 503.707 116.562C498.817 116.699 493.954 115.795 489.44 113.91C484.926 112.025 480.864 109.202 477.523 105.628C474.182 102.054 471.638 97.8107 470.061 93.179C468.484 88.5473 467.908 83.6332 468.373 78.7623C469.195 84.1885 471.299 89.3401 474.512 93.7891C477.724 98.238 481.952 101.856 486.843 104.341Z" fill="#233F45"/>
<path d="M510.247 82.3831C513.714 77.949 516.044 72.7345 517.036 67.1934C518.027 61.6524 517.65 55.9529 515.936 50.5913C514.221 45.2296 511.223 40.3685 507.201 36.431C503.18 32.4935 498.256 29.5992 492.861 28C497.748 28.2043 502.536 29.4452 506.908 31.6405C511.28 33.8358 515.135 36.9354 518.219 40.7339C521.302 44.5324 523.544 48.943 524.794 53.6735C526.045 58.4039 526.276 63.3462 525.473 68.1728C524.669 72.9994 522.849 77.6 520.134 81.6699C517.418 85.7398 513.869 89.1859 509.721 91.78C505.574 94.374 500.922 96.0567 496.075 96.7166C491.228 97.3764 486.296 96.9983 481.606 95.6074C487.088 95.842 492.546 94.7645 497.527 92.4644C502.509 90.1643 506.869 86.7081 510.247 82.3831Z" fill="#233F45"/>
<path d="M398.56 120.69C385.1 120.69 374.189 112.807 374.189 103.084C374.189 93.3605 385.1 85.478 398.56 85.478C412.02 85.478 422.931 93.3605 422.931 103.084C422.931 112.807 412.02 120.69 398.56 120.69Z" fill="#233F45"/>
</g>
</g>
</g>
<defs>
<filter id="filter0_i" x="0" y="0" width="635" height="409" filterUnits="userSpaceOnUse" color-interpolation-filters="sRGB">
<feFlood flood-opacity="0" result="BackgroundImageFix"/>
<feBlend mode="normal" in="SourceGraphic" in2="BackgroundImageFix" result="shape"/>
<feColorMatrix in="SourceAlpha" type="matrix" values="0 0 0 0 0 0 0 0 0 0 0 0 0 0 0 0 0 0 127 0" result="hardAlpha"/>
<feOffset/>
<feGaussianBlur stdDeviation="32"/>
<feComposite in2="hardAlpha" operator="arithmetic" k2="-1" k3="1"/>
<feColorMatrix type="matrix" values="0 0 0 0 0 0 0 0 0 0.122603 0 0 0 0 0.15 0 0 0 0.33 0"/>
<feBlend mode="normal" in2="shape" result="effect1_innerShadow"/>
</filter>
<filter id="filter1_d" x="35.3379" y="-36" width="565.923" height="509.495" filterUnits="userSpaceOnUse" color-interpolation-filters="sRGB">
<feFlood flood-opacity="0" result="BackgroundImageFix"/>
<feColorMatrix in="SourceAlpha" type="matrix" values="0 0 0 0 0 0 0 0 0 0 0 0 0 0 0 0 0 0 127 0"/>
<feOffset/>
<feGaussianBlur stdDeviation="32"/>
<feColorMatrix type="matrix" values="0 0 0 0 0 0 0 0 0 0.129167 0 0 0 0 0.158333 0 0 0 0.33 0"/>
<feBlend mode="normal" in2="BackgroundImageFix" result="effect1_dropShadow"/>
<feBlend mode="normal" in="SourceGraphic" in2="effect1_dropShadow" result="shape"/>
</filter>
<linearGradient id="paint0_linear" x1="-1.89245e-05" y1="409" x2="635" y2="-4.29795e-05" gradientUnits="userSpaceOnUse">
<stop stop-color="#004B5B"/>
<stop offset="1" stop-color="#0094B6"/>
</linearGradient>
<clipPath id="clip0">
<rect width="635" height="409" rx="64" transform="matrix(-1 0 0 1 635 0)" fill="white"/>
</clipPath>
</defs>
</svg>
