<svg width="338" height="338" viewBox="0 0 338 338" fill="none" xmlns="http://www.w3.org/2000/svg">
<g filter="url(#filter0_i)">
<rect width="338" height="338" rx="169" fill="url(#paint0_linear)"/>
<g filter="url(#filter1_d)">
<path d="M85.5684 101.808C81.1501 101.808 77.5684 105.39 77.5684 109.808V227.332C77.5684 231.75 81.1501 235.332 85.5684 235.332H251.572C255.991 235.332 259.572 231.75 259.572 227.332V109.808C259.572 105.39 255.991 101.808 251.572 101.808H85.5684Z" fill="#F5F6F6"/>
<path d="M211.015 109.028C210.914 109.028 210.818 109.068 210.746 109.139C210.675 109.211 210.635 109.307 210.635 109.408V140.267C210.635 140.368 210.675 140.465 210.746 140.536C210.818 140.607 210.914 140.648 211.015 140.648H252.472C252.573 140.648 252.669 140.607 252.741 140.536C252.812 140.465 252.852 140.368 252.852 140.267V109.408C252.852 109.307 252.812 109.211 252.741 109.139C252.669 109.068 252.573 109.028 252.472 109.028H211.015Z" fill="#DFE4E6"/>
<path d="M212.852 110.245C212.299 110.245 211.852 110.692 211.852 111.245V138.431C211.852 138.983 212.299 139.431 212.852 139.431H250.635C251.187 139.431 251.635 138.983 251.635 138.431V111.245C251.635 110.692 251.187 110.245 250.635 110.245H212.852Z" fill="#F5F6F6"/>
<path d="M211.015 152.504C210.914 152.505 210.818 152.545 210.746 152.616C210.675 152.687 210.635 152.784 210.635 152.885V183.744C210.635 183.845 210.675 183.941 210.746 184.013C210.818 184.084 210.914 184.124 211.015 184.124H252.472C252.573 184.124 252.669 184.084 252.741 184.013C252.812 183.941 252.852 183.845 252.852 183.744V152.885C252.852 152.784 252.812 152.687 252.741 152.616C252.669 152.545 252.573 152.505 252.472 152.504H211.015Z" fill="#DFE4E6"/>
<path d="M212.852 153.721C212.299 153.721 211.852 154.168 211.852 154.721V181.907C211.852 182.459 212.299 182.907 212.852 182.907H250.635C251.187 182.907 251.635 182.459 251.635 181.907V154.721C251.635 154.168 251.187 153.721 250.635 153.721H212.852Z" fill="#F5F6F6"/>
<path d="M211.015 195.98C210.914 195.981 210.818 196.021 210.746 196.092C210.675 196.163 210.635 196.26 210.635 196.361V227.22C210.635 227.321 210.675 227.418 210.746 227.489C210.818 227.56 210.914 227.6 211.015 227.6H252.472C252.573 227.6 252.669 227.56 252.741 227.489C252.812 227.418 252.852 227.321 252.852 227.22V196.361C252.852 196.26 252.812 196.163 252.741 196.092C252.669 196.021 252.573 195.981 252.472 195.98H211.015Z" fill="#DFE4E6"/>
<path d="M212.852 197.197C212.299 197.197 211.852 197.645 211.852 198.197V225.383C211.852 225.936 212.299 226.383 212.852 226.383H250.635C251.187 226.383 251.635 225.936 251.635 225.383V198.197C251.635 197.645 251.187 197.197 250.635 197.197H212.852Z" fill="#F5F6F6"/>
<path d="M244.17 133.804L236.244 128.26H236.241L236.24 128.261C235.971 127.412 235.785 126.54 235.686 125.655C236.43 124.978 236.958 124.096 237.204 123.12C237.236 123.139 237.267 123.16 237.296 123.183C237.991 123.738 239.31 117.837 237.088 116.726C237.088 116.726 235.421 113.115 232.227 113.949C229.033 114.782 227.228 116.031 227.089 117.281C226.95 118.531 227.158 120.405 227.158 120.405C227.158 120.405 227.351 118.988 228.361 118.487C227.861 119.056 227.494 119.73 227.286 120.458C227.078 121.187 227.034 121.952 227.157 122.7C227.28 123.447 227.568 124.158 227.999 124.781C228.43 125.404 228.993 125.924 229.649 126.303C229.408 127.131 229.086 128.203 228.816 128.991H228.816L226.393 130.196L221.117 133.528C221.117 133.528 219.034 136.165 218.339 139.221C218.285 139.461 218.229 139.701 218.17 139.942H246.319C245.38 137.106 244.17 133.804 244.17 133.804Z" fill="#DFE4E6"/>
<path d="M242.429 223.084C242.971 222.738 243.544 222.445 244.143 222.209L238.244 215.207L234.346 214.21C233.662 213.825 233.122 213.228 232.809 212.509L234.896 212.488L235.691 207.985C236.175 206.675 235.978 205.527 234.896 204.581C235.09 203.369 234.54 202.476 233.082 201.972C231.632 200.714 229.489 200.412 228.202 202.428C227.683 202.397 227.171 202.567 226.775 202.904C226.378 203.241 226.127 203.718 226.074 204.236C224.892 205.609 226.204 210.65 226.593 212.57L228.668 212.55C228.548 213.26 228.2 213.912 227.675 214.406L227.647 214.378L223.501 216.406L217.603 223.224C218.185 223.453 218.744 223.735 219.273 224.068L218.664 226.383H222.884L224.007 224.751H224.064C224.064 224.723 224.066 224.695 224.066 224.667L224.854 223.521C224.872 224.447 224.846 225.401 224.782 226.383H237.909C237.889 225.567 237.884 224.756 237.884 223.951L239.352 226.081C239.462 225.92 239.579 225.769 239.697 225.616L239.986 226.383H243.347L242.541 223.319C242.519 223.234 242.48 223.155 242.429 223.084V223.084Z" fill="#DFE4E6"/>
<path d="M239.494 174.27L233.921 171.992C233.788 171.465 233.675 170.969 233.604 170.531C234.176 170.206 234.677 169.769 235.078 169.247C235.479 168.725 235.771 168.128 235.936 167.491L236.525 166.859C236.837 166.533 237.077 166.144 237.227 165.718C237.377 165.292 237.434 164.838 237.394 164.388C237.292 163.524 236.854 162.734 236.174 162.189C236.402 160.749 235.75 159.69 234.021 159.092C232.302 157.601 229.757 157.24 228.232 159.632C227.616 159.595 227.009 159.798 226.538 160.197C226.067 160.597 225.769 161.163 225.705 161.777C224.452 163.235 225.744 166.143 226.36 168.37C226.407 168.535 226.502 168.683 226.632 168.794C226.763 168.905 226.924 168.975 227.094 168.994C227.504 169.6 228.043 170.108 228.672 170.48C228.688 171.124 228.612 171.766 228.447 172.388L228.452 172.194L224.296 174.063L224.293 174.012L223.892 174.245L223.255 174.531C223.26 174.557 223.265 174.58 223.27 174.605L223.211 174.639C222.316 175.157 221.63 175.972 221.273 176.943L219.137 183.193H238.259C238.454 182.542 238.693 181.904 238.975 181.285L238.98 181.216L240.679 183.193H245.866L239.494 174.27Z" fill="#DFE4E6"/>
<path d="M87.7015 109.1C87.4309 109.1 87.1714 109.249 86.98 109.513C86.7886 109.777 86.681 110.135 86.6807 110.508V224.795C86.681 225.169 86.7886 225.527 86.98 225.791C87.1714 226.055 87.4309 226.203 87.7015 226.204H198.975C199.245 226.203 199.505 226.055 199.696 225.791C199.888 225.527 199.995 225.169 199.996 224.795V110.508C199.995 110.135 199.888 109.777 199.696 109.513C199.505 109.249 199.245 109.1 198.975 109.1H87.7015Z" fill="#DFE4E6"/>
<g clip-path="url(#clip0)">
<path d="M91.8916 112.314C90.787 112.314 89.8916 113.209 89.8916 114.314V220.989C89.8916 222.093 90.787 222.989 91.8916 222.989H194.784C195.888 222.989 196.784 222.093 196.784 220.989V114.314C196.784 113.209 195.888 112.314 194.784 112.314H91.8916Z" fill="#F5F6F6"/>
<path d="M133.117 151.446C133.117 151.446 134.082 164.775 133.642 165.559C133.202 166.343 141.37 180.423 141.37 180.423L154.427 168.174C154.427 168.174 153.636 151.231 154.477 150.466C155.318 149.702 133.117 151.446 133.117 151.446Z" fill="#B5868D"/>
<path d="M144.221 161.626C152.651 161.626 159.484 154.786 159.484 146.348C159.484 137.91 152.651 131.07 144.221 131.07C135.792 131.07 128.958 137.91 128.958 146.348C128.958 154.786 135.792 161.626 144.221 161.626Z" fill="#B5868D"/>
<path d="M143.038 170.844L141.472 169.963L133.745 162.996C133.745 162.996 132.976 162.709 132.859 165.119L132.743 167.528L127.754 170.909L127.525 225.64L162.028 227.309L163.48 172.235L155.689 167.028L154.261 163.981L145.484 170.157L143.038 170.844Z" fill="#F5F6F6"/>
<path d="M177.368 176.126L173.553 231.837H115.934C108.592 223.137 102.728 178.369 108.986 177.043C111.03 176.335 124.891 171.977 124.891 171.977C124.891 171.977 129.032 169.36 130.354 167.012C131.166 165.614 132.16 164.331 133.31 163.196L133.318 163.188L133.322 163.18C133.354 163.148 133.382 163.116 133.415 163.088C133.421 163.077 133.431 163.068 133.443 163.064C133.483 163.019 133.523 162.979 133.567 162.939V162.999L133.274 173.187L144.312 211.156C144.312 211.156 147.421 188.364 150.578 181.272C152.357 177.276 153.289 172.343 153.763 168.797C154.128 166.051 154.221 164.141 154.221 164.141C154.221 164.141 154.237 164.161 154.265 164.197V164.201C154.265 164.202 154.265 164.202 154.265 164.203C154.265 164.203 154.266 164.204 154.266 164.204C154.266 164.205 154.267 164.205 154.267 164.205C154.268 164.205 154.268 164.205 154.269 164.205C154.317 164.266 154.393 164.366 154.506 164.503L154.51 164.507C155.434 165.665 158.398 169.171 160.406 169.267C162.812 169.384 169.419 174.132 169.419 174.132C172.649 173.883 177.368 176.126 177.368 176.126Z" fill="#1C353A"/>
<path d="M184.651 225.183C183.671 227.961 182.964 230.161 182.385 231.837H137.829C137.68 230.301 137.492 228.199 137.371 226.116C137.174 222.783 137.142 219.502 137.684 218.682C137.709 218.636 137.744 218.595 137.785 218.563C137.827 218.53 137.874 218.507 137.925 218.493C138.966 218.288 150.718 218.103 159.041 217.995C160.198 217.983 161.286 217.971 162.274 217.959C165.274 217.922 167.307 217.902 167.307 217.902C167.307 217.902 167.468 212.402 167.958 205.391C168.821 193.064 170.709 176.062 174.557 175.989L177.368 176.126C177.368 176.126 178.971 176.202 179.658 178.651C180.345 181.099 187.446 217.267 184.651 225.183Z" fill="#1C353A"/>
<path d="M102.309 225.302C103.274 228.054 103.97 230.233 104.54 231.893H148.416C148.563 230.372 148.749 228.289 148.867 226.226C149.061 222.925 149.093 219.675 148.559 218.863C148.534 218.817 148.5 218.776 148.459 218.744C148.419 218.712 148.372 218.688 148.321 218.675C147.297 218.472 135.724 218.289 127.528 218.182C126.389 218.17 125.317 218.158 124.344 218.146C121.389 218.11 119.388 218.09 119.388 218.09C119.388 218.09 119.23 212.642 118.747 205.696C117.897 193.486 116.038 176.643 112.249 176.572L109.48 176.707C109.48 176.707 107.902 176.783 107.225 179.208C106.549 181.634 99.556 217.461 102.309 225.302Z" fill="#1C353A"/>
<path d="M131.721 132.034L128.879 130.842C128.879 130.842 135.22 125.08 143.609 126.013L141.357 123.53C141.357 123.53 147.244 121.704 152.236 127.486C154.861 130.525 157.895 134.096 159.703 138.04L162.801 138.189L161.383 140.715L165.784 143.522L161.161 142.833C161.494 145.089 161.231 147.392 160.399 149.515L159.207 152.36C159.207 152.36 155.406 143.733 155.457 142.68L155.33 145.312C155.33 145.312 152.551 142.804 152.628 141.224L150.961 142.99L150.312 140.057L140.442 142.482L142.134 140.189L136.048 140.686L138.554 137.905C138.554 137.905 131.552 140.997 131.149 143.879C130.747 146.762 127.15 150.282 127.15 150.282L125.699 147.573C125.699 147.573 123.904 135.614 131.721 132.034Z" fill="#1C353A"/>
</g>
</g>
</g>
<defs>
<filter id="filter0_i" x="0" y="0" width="338" height="338" filterUnits="userSpaceOnUse" color-interpolation-filters="sRGB">
<feFlood flood-opacity="0" result="BackgroundImageFix"/>
<feBlend mode="normal" in="SourceGraphic" in2="BackgroundImageFix" result="shape"/>
<feColorMatrix in="SourceAlpha" type="matrix" values="0 0 0 0 0 0 0 0 0 0 0 0 0 0 0 0 0 0 127 0" result="hardAlpha"/>
<feOffset/>
<feGaussianBlur stdDeviation="64"/>
<feComposite in2="hardAlpha" operator="arithmetic" k2="-1" k3="1"/>
<feColorMatrix type="matrix" values="0 0 0 0 0 0 0 0 0 0.122603 0 0 0 0 0.15 0 0 0 0.33 0"/>
<feBlend mode="normal" in2="shape" result="effect1_innerShadow"/>
</filter>
<filter id="filter1_d" x="8" y="8" width="321.14" height="321.14" filterUnits="userSpaceOnUse" color-interpolation-filters="sRGB">
<feFlood flood-opacity="0" result="BackgroundImageFix"/>
<feColorMatrix in="SourceAlpha" type="matrix" values="0 0 0 0 0 0 0 0 0 0 0 0 0 0 0 0 0 0 127 0"/>
<feOffset/>
<feGaussianBlur stdDeviation="32"/>
<feColorMatrix type="matrix" values="0 0 0 0 0 0 0 0 0 0.129167 0 0 0 0 0.158333 0 0 0 0.33 0"/>
<feBlend mode="normal" in2="BackgroundImageFix" result="effect1_dropShadow"/>
<feBlend mode="normal" in="SourceGraphic" in2="effect1_dropShadow" result="shape"/>
</filter>
<linearGradient id="paint0_linear" x1="-1.00732e-05" y1="338" x2="408.002" y2="168.737" gradientUnits="userSpaceOnUse">
<stop stop-color="#73DFFA"/>
<stop offset="1" stop-color="#14738B"/>
</linearGradient>
<clipPath id="clip0">
<rect width="106.892" height="110.675" fill="white" transform="translate(89.8916 112.314)"/>
</clipPath>
</defs>
</svg>
