<svg width="338" height="338" viewBox="0 0 338 338" fill="none" xmlns="http://www.w3.org/2000/svg">
<g filter="url(#filter0_i)">
<rect width="338" height="338" rx="169" fill="url(#paint0_linear)"/>
<g filter="url(#filter1_d)">
<path d="M233.196 238.22C233.541 247.081 226.451 254.452 217.584 254.452H118.199C109.986 254.452 103.338 247.777 103.37 239.564V239.564C103.519 201.894 131.467 170.854 166.477 170.214C166.856 170.207 167.234 170.203 167.614 170.203C175.492 170.197 183.307 171.707 190.69 174.663C215.463 184.589 232.09 209.806 233.196 238.22V238.22Z" fill="#31535B"/>
<path d="M166.359 187.866L172.11 192.365L177.861 245.237H191.454L186.749 185.053L167.928 177.179L166.359 187.866Z" fill="#1C353A"/>
<path d="M142.31 170.992C142.31 170.992 140.742 190.116 147.015 190.678C153.289 191.241 177.339 185.053 177.339 185.053L188.841 228.926L206.093 219.364C206.093 219.364 195.637 169.867 189.363 167.055C183.09 164.242 162.177 158.618 162.177 158.618L147.015 161.43L142.31 170.992Z" fill="#1C353A"/>
<path d="M179.953 244.112C179.953 244.112 176.816 257.048 178.907 258.173C180.165 258.85 181.387 259.601 182.567 260.423V258.173C182.567 258.173 185.181 260.986 185.181 263.236C185.181 265.485 199.297 266.048 199.297 263.236C199.297 260.423 198.774 257.048 196.16 255.361C193.546 253.674 190.409 244.112 190.409 244.112H179.953Z" fill="#1C353A"/>
<path d="M195.114 221.051L196.16 231.738L199.82 238.488L208.707 227.801L201.911 215.989L195.114 221.051Z" fill="#1C353A"/>
<path d="M203.479 231.738C203.479 231.738 205.404 224.656 207.317 225.385C209.23 226.113 216.55 233.425 216.55 233.425L221.778 236.8C221.778 236.8 232.234 237.925 229.097 241.3C225.96 244.674 214.458 249.174 209.23 246.924C204.002 244.674 202.956 244.112 202.956 244.112L201.388 245.237L195.114 243.549L196.16 231.738C196.16 231.738 197.728 236.8 203.479 231.738Z" fill="#1C353A"/>
<path d="M160.085 100.684C166.726 100.684 172.11 94.892 172.11 87.7472C172.11 80.6025 166.726 74.8105 160.085 74.8105C153.444 74.8105 148.061 80.6025 148.061 87.7472C148.061 94.892 153.444 100.684 160.085 100.684Z" fill="#9F616A"/>
<path d="M152.505 95.3401C152.505 95.3401 153.551 107.152 150.414 107.152C147.277 107.152 150.937 121.776 159.302 121.776C167.667 121.776 170.804 104.339 170.804 104.339C170.804 104.339 165.053 102.09 166.098 94.7776C167.144 87.4656 152.505 95.3401 152.505 95.3401Z" fill="#9F616A"/>
<path d="M151.671 106.251L147.276 108.277L135.348 113.706C134.867 113.925 134.465 114.305 134.201 114.79C133.938 115.275 133.827 115.839 133.885 116.397L138.389 159.461C138.389 159.461 133.683 170.148 141.003 170.711L142.048 174.648L150.413 163.961L181.782 162.836L182.305 108.277L167.952 102.175C167.952 102.175 166 113.787 151.671 106.251Z" fill="#31545B"/>
<path d="M137.081 115.308L135.149 114.714C134.933 114.647 134.705 114.631 134.482 114.666C134.259 114.701 134.046 114.786 133.856 114.916C133.666 115.047 133.504 115.219 133.38 115.421C133.256 115.624 133.174 115.852 133.139 116.092L128.012 150.691C127.612 153.253 127.995 155.886 129.103 158.194C130.687 161.421 133.977 164.348 140.741 160.867L145.446 124.307L137.081 115.308Z" fill="#31545B"/>
<path d="M176.293 107.433L182.567 108.558L199.82 134.431L201.388 138.931L211.322 135.556C211.322 135.556 210.799 140.618 216.027 140.056C216.027 140.056 209.753 158.617 196.683 152.993C183.612 147.368 179.43 130.494 179.43 130.494L176.293 107.433Z" fill="#31545B"/>
<path d="M183.612 118.683L160.086 108.558L159.04 111.933L170.019 122.057L183.612 118.683Z" fill="#C8CDCE"/>
<path d="M152.846 88.5717C153.29 88.4441 153.355 87.8098 153.37 87.3155C153.45 84.6686 154.931 81.9526 157.286 81.1821C158.19 80.9155 159.136 80.8595 160.062 81.0178C161.383 81.2071 162.658 81.6649 163.82 82.3668C164.433 82.7378 165.035 83.1846 165.731 83.2979C166.19 83.3728 168.18 83.9951 168.637 84.0827C169.643 84.2752 170.578 85.2435 171.543 84.8832C172.467 84.5385 172.671 83.2521 172.694 82.2007C172.745 79.8055 171.054 76.4904 169.566 74.7086C168.436 73.3564 166.735 72.7322 165.072 72.4076C163.13 72.0718 161.161 71.943 159.196 72.023C156.534 72.0741 153.8 72.295 151.4 73.5338C149.001 74.7725 146.985 77.2379 146.87 80.0985C146.846 80.6944 146.903 81.2928 146.857 81.8872C146.743 83.3371 146.027 84.6467 145.692 86.0562C145.452 87.0904 145.416 88.1673 145.586 89.2173C145.757 90.2674 146.13 91.2673 146.682 92.1527C147.572 93.5626 151.134 94.8426 151.082 96.5463C151.726 95.8289 150.208 95.1067 150.852 94.3893C151.14 94.1524 151.344 93.8162 151.43 93.4369C151.516 93.0576 151.478 92.6581 151.323 92.3051L150.64 89.437C150.515 88.9118 150.391 88.3433 150.58 87.8408C151.313 85.8929 152.105 88.7844 152.846 88.5717Z" fill="#1C353A"/>
<path d="M159.04 111.933L149.106 153.555L187.795 168.179L210.276 147.93L224.392 102.371L201.388 120.37L159.04 111.933Z" fill="#F2F3F3"/>
<path d="M160.937 116.442L160.804 116.986L198.446 127.673L198.58 127.129L160.937 116.442Z" fill="#E6E6E6"/>
<path d="M159.891 119.254L159.758 119.798L197.4 130.485L197.534 129.941L159.891 119.254Z" fill="#E6E6E6"/>
<path d="M159.368 122.067L159.234 122.61L196.877 133.297L197.01 132.753L159.368 122.067Z" fill="#E6E6E6"/>
<path d="M158.845 124.879L158.712 125.423L196.355 136.11L196.488 135.566L158.845 124.879Z" fill="#E6E6E6"/>
<path d="M158.322 127.691L158.188 128.235L195.831 138.922L195.965 138.378L158.322 127.691Z" fill="#E6E6E6"/>
<path d="M157.799 130.504L157.666 131.047L195.309 141.734L195.442 141.19L157.799 130.504Z" fill="#E6E6E6"/>
<path d="M157.277 133.316L157.144 133.86L194.786 144.547L194.92 144.003L157.277 133.316Z" fill="#E6E6E6"/>
<path d="M156.754 136.128L156.621 136.672L194.264 147.359L194.397 146.815L156.754 136.128Z" fill="#E6E6E6"/>
<path d="M156.231 138.941L156.098 139.484L193.74 150.171L193.874 149.627L156.231 138.941Z" fill="#E6E6E6"/>
<path d="M143.099 142.55C143.099 142.55 154.857 134.994 160.085 140.056C165.313 145.118 144.924 152.43 144.924 152.43L143.099 142.55Z" fill="#9F616A"/>
<path d="M130.285 146.243L145.446 140.056C145.446 140.056 142.832 150.743 148.06 151.305L140.741 160.867C140.741 160.867 126.102 160.867 130.285 146.243Z" fill="#31545B"/>
<path d="M170.183 146.012L190.302 153.307L185.54 164.472L165.422 157.178L170.183 146.012Z" fill="#E6E6E6"/>
<path d="M205.832 122.338L220.994 109.964L216.812 125.151L201.127 137.525L205.832 122.338Z" fill="#C8CDCE"/>
<path d="M213.516 130.552L198.354 142.925L198.671 143.374L213.832 131L213.516 130.552Z" fill="#E6E6E6"/>
<path d="M212.471 136.739L197.309 149.113L197.625 149.561L212.787 137.187L212.471 136.739Z" fill="#E6E6E6"/>
<path d="M214.458 140.618C214.458 140.618 227.528 132.182 219.163 128.807C210.798 125.432 210.798 138.369 210.798 138.369C210.798 138.369 210.275 141.181 214.458 140.618Z" fill="#9F616A"/>
<path opacity="0.1" d="M137.867 121.776L137.344 143.712L145.447 141.224L138.912 141.462L137.867 121.776Z" fill="black"/>
</g>
</g>
<defs>
<filter id="filter0_i" x="0" y="0" width="338" height="338" filterUnits="userSpaceOnUse" color-interpolation-filters="sRGB">
<feFlood flood-opacity="0" result="BackgroundImageFix"/>
<feBlend mode="normal" in="SourceGraphic" in2="BackgroundImageFix" result="shape"/>
<feColorMatrix in="SourceAlpha" type="matrix" values="0 0 0 0 0 0 0 0 0 0 0 0 0 0 0 0 0 0 127 0" result="hardAlpha"/>
<feOffset/>
<feGaussianBlur stdDeviation="64"/>
<feComposite in2="hardAlpha" operator="arithmetic" k2="-1" k3="1"/>
<feColorMatrix type="matrix" values="0 0 0 0 0 0 0 0 0 0.122603 0 0 0 0 0.15 0 0 0 0.33 0"/>
<feBlend mode="normal" in2="shape" result="effect1_innerShadow"/>
</filter>
<filter id="filter1_d" x="8" y="8" width="321.14" height="321.14" filterUnits="userSpaceOnUse" color-interpolation-filters="sRGB">
<feFlood flood-opacity="0" result="BackgroundImageFix"/>
<feColorMatrix in="SourceAlpha" type="matrix" values="0 0 0 0 0 0 0 0 0 0 0 0 0 0 0 0 0 0 127 0"/>
<feOffset/>
<feGaussianBlur stdDeviation="32"/>
<feColorMatrix type="matrix" values="0 0 0 0 0 0 0 0 0 0.129167 0 0 0 0 0.158333 0 0 0 0.33 0"/>
<feBlend mode="normal" in2="BackgroundImageFix" result="effect1_dropShadow"/>
<feBlend mode="normal" in="SourceGraphic" in2="effect1_dropShadow" result="shape"/>
</filter>
<linearGradient id="paint0_linear" x1="-1.00732e-05" y1="338" x2="408.002" y2="168.737" gradientUnits="userSpaceOnUse">
<stop stop-color="#73DFFA"/>
<stop offset="1" stop-color="#14738B"/>
</linearGradient>
</defs>
</svg>
