<svg width="338" height="338" viewBox="0 0 338 338" fill="none" xmlns="http://www.w3.org/2000/svg">
<g filter="url(#filter0_i)">
<rect width="338" height="338" rx="169" fill="url(#paint0_linear)"/>
<g filter="url(#filter1_d)">
<g clip-path="url(#clip0)">
<path d="M190.948 153.348C190.948 153.348 216.917 154.563 218.482 163.371C220.046 172.179 188.132 164.282 188.132 164.282L190.948 153.348Z" fill="#CDA3A9"/>
<path d="M149.96 125.407C149.96 125.407 154.34 126.622 157.782 133.911C161.224 141.2 168.107 147.882 168.107 147.882L195.954 153.045L191.261 166.712L164.666 163.371L148.083 154.26L149.96 125.407Z" fill="#31545B"/>
<path opacity="0.1" d="M149.96 125.407C149.96 125.407 154.34 126.622 157.782 133.911C161.224 141.2 168.107 147.882 168.107 147.882L195.954 153.045L191.261 166.712L164.666 163.371L148.083 154.26L149.96 125.407Z" fill="black"/>
<path d="M108.659 111.436L111.475 128.748L130.874 129.659L128.684 104.147L108.659 111.436Z" fill="#CDA3A9"/>
<path d="M89.0161 226.915C88.5143 226.965 88.1559 227.378 88.1436 227.882L87.3271 261.17C87.272 263.417 89.0783 265.268 91.3259 265.268H113.629C115.411 265.268 116.978 264.089 117.472 262.376L119.941 253.816C120.228 252.823 121.649 252.864 121.877 253.872L123.754 262.152C124.167 263.974 125.786 265.268 127.655 265.268H151.18C153.367 265.268 155.146 263.518 155.158 261.331C155.215 250.575 155.112 221.477 152.307 221.229C149.106 220.947 96.3783 226.181 89.0161 226.915Z" fill="#1C353A"/>
<path d="M114.917 115.992C124.248 115.992 131.813 108.649 131.813 99.591C131.813 90.5332 124.248 83.1904 114.917 83.1904C105.586 83.1904 98.021 90.5332 98.021 99.591C98.021 108.649 105.586 115.992 114.917 115.992Z" fill="#CDA3A9"/>
<path d="M87.0198 228.67C86.7226 228.67 86.5005 228.397 86.5614 228.106L95.1189 187.166C95.1752 186.896 95.1753 186.618 95.1192 186.349L83.9804 132.872C83.7778 131.899 84.3202 130.925 85.2539 130.585L110.07 121.546C110.216 121.493 110.368 121.457 110.523 121.439L123.364 119.94L129.509 118.827C129.791 118.775 130.08 118.785 130.358 118.856L134.618 119.937C134.625 119.939 134.623 119.939 134.63 119.941C134.851 119.994 153.407 124.516 154.34 127.837C155.27 131.148 150.667 158.032 150.586 158.506C150.584 158.52 150.584 158.519 150.581 158.534L146.288 180.56C146.233 180.841 146.239 181.131 146.306 181.41L155.475 219.593C155.718 220.604 155.149 221.627 154.155 221.931C146.118 224.384 112.068 233.982 87.1171 228.68C87.085 228.673 87.0526 228.67 87.0198 228.67Z" fill="#31545B"/>
<path opacity="0.1" d="M98.1777 146.515V157.752L135.096 157.801L100.055 154.108L98.1777 146.515Z" fill="black"/>
<path opacity="0.1" d="M95.0063 177.55L141.356 171.116L95.0063 183.858V177.55Z" fill="black"/>
<path opacity="0.1" d="M168.577 148.033L163.608 165.413L172.019 148.606L168.577 148.033Z" fill="black"/>
<path d="M128.821 83.1429L131.928 81.9355C131.928 81.9355 125.432 74.993 116.394 75.5967L118.936 72.88C118.936 72.88 112.722 70.4653 107.073 76.8041C104.103 80.1362 100.667 84.053 98.5252 88.4652H95.1979L96.5866 91.4334L91.7261 94.4016L96.7149 93.8684C96.4176 95.4938 96.372 97.1532 96.5795 98.7917C96.7936 100.431 97.6552 101.925 98.9826 102.959C98.9826 102.959 102.836 95.2168 102.836 94.0094V97.0279C102.836 97.0279 105.943 94.3113 105.943 92.5002L107.638 94.6132L108.485 91.2928L118.936 94.6132L117.241 91.8965L123.737 92.8021L121.195 89.4817C121.195 89.4817 128.539 93.4057 128.821 96.7261C129.104 100.046 131.253 103.193 131.253 103.193C131.253 103.193 137.013 87.6706 128.821 83.1429Z" fill="#1C353A"/>
<path d="M248.571 143.781H162.423C153.034 143.781 145.423 151.393 145.423 160.781V248.571C145.423 257.96 153.034 265.571 162.423 265.571H248.571C257.96 265.571 265.571 257.96 265.571 248.571V160.781C265.571 151.393 257.96 143.781 248.571 143.781Z" fill="#E3F3F6"/>
<path d="M236.413 173.857H172.933C169.724 173.857 167.122 176.459 167.122 179.668C167.122 182.878 169.724 185.479 172.933 185.479H236.413C239.622 185.479 242.224 182.878 242.224 179.668C242.224 176.459 239.622 173.857 236.413 173.857Z" fill="#A1D6E0"/>
<path d="M224.019 199.533H171.898C170.221 199.533 168.861 200.893 168.861 202.57C168.861 204.247 170.221 205.607 171.898 205.607H224.019C225.696 205.607 227.056 204.247 227.056 202.57C227.056 200.893 225.696 199.533 224.019 199.533Z" fill="#A1D6E0"/>
<path d="M224.131 210.163H172.01C170.332 210.163 168.973 211.523 168.973 213.2C168.973 214.878 170.332 216.237 172.01 216.237H224.131C225.808 216.237 227.168 214.878 227.168 213.2C227.168 211.523 225.808 210.163 224.131 210.163Z" fill="#A1D6E0"/>
<path d="M195.146 220.792H172.123C170.445 220.792 169.085 222.152 169.085 223.83C169.085 225.507 170.445 226.867 172.123 226.867H195.146C196.823 226.867 198.183 225.507 198.183 223.83C198.183 222.152 196.823 220.792 195.146 220.792Z" fill="#A1D6E0"/>
<path d="M237.469 234.081H225.209C222.583 234.081 220.455 236.209 220.455 238.835C220.455 241.461 222.583 243.59 225.209 243.59H237.469C240.095 243.59 242.223 241.461 242.223 238.835C242.223 236.209 240.095 234.081 237.469 234.081Z" fill="#A1D6E0"/>
<path d="M136.819 159.119C136.819 159.119 164.04 155.171 168.108 160.942C172.175 166.712 139.322 169.749 139.322 169.749L136.819 159.119Z" fill="#CDA3A9"/>
<path d="M86.7568 130.874H84.7963C83.9899 130.872 83.2125 131.165 82.6199 131.696C80.7588 133.373 76.8238 137.702 75.1799 145.452C72.9897 155.778 69.2351 175.824 77.683 177.342C86.131 178.861 141.512 171.572 141.512 171.572L137.444 157.601L97.3949 157.904C97.3949 157.904 98.0207 151.223 96.7691 146.971C95.5176 142.719 86.7568 130.874 86.7568 130.874Z" fill="#31545B"/>
</g>
</g>
</g>
<defs>
<filter _id="filter0_i" x="0" y="0" width="338" height="338" filterUnits="userSpaceOnUse" color-interpolation-filters="sRGB">
<feFlood flood-opacity="0" result="BackgroundImageFix"/>
<feBlend mode="normal" in="SourceGraphic" in2="BackgroundImageFix" result="shape"/>
<feColorMatrix in="SourceAlpha" type="matrix" values="0 0 0 0 0 0 0 0 0 0 0 0 0 0 0 0 0 0 127 0" result="hardAlpha"/>
<feOffset/>
<feGaussianBlur stdDeviation="64"/>
<feComposite in2="hardAlpha" operator="arithmetic" k2="-1" k3="1"/>
<feColorMatrix type="matrix" values="0 0 0 0 0 0 0 0 0 0.122603 0 0 0 0 0.15 0 0 0 0.33 0"/>
<feBlend mode="normal" in2="shape" result="effect1_innerShadow"/>
</filter>
<filter _id="filter1_d" x="8.42871" y="8.42847" width="321.143" height="321.143" filterUnits="userSpaceOnUse" color-interpolation-filters="sRGB">
<feFlood flood-opacity="0" result="BackgroundImageFix"/>
<feColorMatrix in="SourceAlpha" type="matrix" values="0 0 0 0 0 0 0 0 0 0 0 0 0 0 0 0 0 0 127 0"/>
<feOffset/>
<feGaussianBlur stdDeviation="32"/>
<feColorMatrix type="matrix" values="0 0 0 0 0 0 0 0 0 0.129167 0 0 0 0 0.158333 0 0 0 0.33 0"/>
<feBlend mode="normal" in2="BackgroundImageFix" result="effect1_dropShadow"/>
<feBlend mode="normal" in="SourceGraphic" in2="effect1_dropShadow" result="shape"/>
</filter>
<linearGradient _id="paint0_linear" x1="-1.00732e-05" y1="338" x2="408.002" y2="168.737" gradientUnits="userSpaceOnUse">
<stop stop-color="#73DFFA"/>
<stop offset="1" stop-color="#14738B"/>
</linearGradient>
<clipPath _id="clip0">
<rect width="193.143" height="193.143" fill="white" transform="translate(72.4287 72.4285)"/>
</clipPath>
</defs>
</svg>
