<svg width="256" height="256" viewBox="0 0 256 256" fill="none" xmlns="http://www.w3.org/2000/svg">
    <style>
        .r {
            fill: #005669;
        }

        @media (prefers-color-scheme: dark) {
            .r {
            fill: #F9FBFB;
            }
        }
    </style>
<path class="r" d="M216.133 8.85046H247.416C252.128 8.85046 255.947 12.7538 255.947 17.5687V46.6295C255.947 51.4445 252.128 55.3478 247.416 55.3478H216.133V8.85046Z" fill="currentColor"/>
<path d="M0 17.5687C0 12.7538 3.81976 8.85046 8.53168 8.85046H216.136V55.3478H8.53168C3.81977 55.3478 0 51.4445 0 46.6295V17.5687Z" fill="#00B3DB"/>
<path class="r" d="M93.8711 72.7839H247.441C252.153 72.7839 255.973 76.6872 255.973 81.5022V110.563C255.973 115.378 252.153 119.281 247.441 119.281H93.8711V72.7839Z" fill="currentColor"/>
<path d="M0 81.5022C0 76.6872 3.81976 72.7839 8.53168 72.7839H93.8485V119.281H8.53168C3.81976 119.281 0 115.378 0 110.563V81.5022Z" fill="#00B3DB"/>
<path class="r" d="M247.467 136.718H56.9258V183.215H247.467C252.178 183.215 255.998 179.312 255.998 174.497V145.436C255.998 140.621 252.178 136.718 247.467 136.718Z" fill="currentColor"/>
<path d="M56.8779 136.718H8.53168C3.81976 136.718 0 140.621 0 145.436V174.497C0 179.312 3.81976 183.215 8.53168 183.215H56.8779V136.718Z" fill="#00B3DB"/>
<path class="r" d="M247.438 200.652H153.59V247.15H247.438C252.15 247.15 255.97 243.246 255.97 238.431V209.371C255.97 204.556 252.15 200.652 247.438 200.652Z" fill="currentColor"/>
<path d="M153.57 200.652H8.53168C3.81976 200.652 0 204.556 0 209.371V238.431C0 243.246 3.81977 247.15 8.53168 247.15H153.57V200.652Z" fill="#00B3DB"/>
</svg>
